<mxfile host="app.diagrams.net" agent="Mozilla/5.0 (Windows NT 10.0; Win64; x64) AppleWebKit/537.36 (KHTML, like Gecko) Chrome/139.0.0.0 Safari/537.36 Edg/139.0.0.0" version="28.1.2" pages="2">
  <diagram name="Page-1" id="61Ia2EGu3eBKGoMrKESx">
    <mxGraphModel dx="1034" dy="1670" grid="1" gridSize="10" guides="1" tooltips="1" connect="1" arrows="1" fold="1" page="1" pageScale="1" pageWidth="850" pageHeight="1100" math="0" shadow="0">
      <root>
        <mxCell id="0" />
        <mxCell id="1" parent="0" />
        <mxCell id="g6ZDhscE6CRyUxzwVH4b-21" style="edgeStyle=orthogonalEdgeStyle;rounded=0;orthogonalLoop=1;jettySize=auto;html=1;exitX=0.5;exitY=1;exitDx=0;exitDy=0;" parent="1" edge="1">
          <mxGeometry relative="1" as="geometry">
            <mxPoint x="410" y="290" as="sourcePoint" />
            <mxPoint x="410" y="290" as="targetPoint" />
          </mxGeometry>
        </mxCell>
        <mxCell id="g6ZDhscE6CRyUxzwVH4b-43" value="" style="endArrow=classic;html=1;rounded=0;exitX=0.432;exitY=1.027;exitDx=0;exitDy=0;exitPerimeter=0;" parent="1" edge="1">
          <mxGeometry width="50" height="50" relative="1" as="geometry">
            <mxPoint x="441.84000000000015" y="72.16000000000008" as="sourcePoint" />
            <mxPoint x="440" y="140" as="targetPoint" />
          </mxGeometry>
        </mxCell>
        <mxCell id="g6ZDhscE6CRyUxzwVH4b-46" value="" style="edgeStyle=orthogonalEdgeStyle;rounded=0;orthogonalLoop=1;jettySize=auto;html=1;" parent="1" target="g6ZDhscE6CRyUxzwVH4b-45" edge="1">
          <mxGeometry relative="1" as="geometry">
            <mxPoint x="435" y="220" as="sourcePoint" />
          </mxGeometry>
        </mxCell>
        <mxCell id="g6ZDhscE6CRyUxzwVH4b-48" value="" style="edgeStyle=orthogonalEdgeStyle;rounded=0;orthogonalLoop=1;jettySize=auto;html=1;" parent="1" source="g6ZDhscE6CRyUxzwVH4b-45" target="g6ZDhscE6CRyUxzwVH4b-47" edge="1">
          <mxGeometry relative="1" as="geometry" />
        </mxCell>
        <mxCell id="g6ZDhscE6CRyUxzwVH4b-45" value="deploy" style="ellipse;whiteSpace=wrap;html=1;" parent="1" vertex="1">
          <mxGeometry x="370" y="300" width="130" height="80" as="geometry" />
        </mxCell>
        <mxCell id="g6ZDhscE6CRyUxzwVH4b-47" value="operator" style="ellipse;whiteSpace=wrap;html=1;" parent="1" vertex="1">
          <mxGeometry x="370" y="460" width="130" height="80" as="geometry" />
        </mxCell>
        <mxCell id="g6ZDhscE6CRyUxzwVH4b-53" value="" style="edgeStyle=orthogonalEdgeStyle;rounded=0;orthogonalLoop=1;jettySize=auto;html=1;" parent="1" source="g6ZDhscE6CRyUxzwVH4b-51" target="g6ZDhscE6CRyUxzwVH4b-52" edge="1">
          <mxGeometry relative="1" as="geometry" />
        </mxCell>
        <mxCell id="g6ZDhscE6CRyUxzwVH4b-51" value="test" style="ellipse;whiteSpace=wrap;html=1;" parent="1" vertex="1">
          <mxGeometry x="370" y="20" width="140" height="80" as="geometry" />
        </mxCell>
        <mxCell id="g6ZDhscE6CRyUxzwVH4b-55" value="" style="edgeStyle=orthogonalEdgeStyle;rounded=0;orthogonalLoop=1;jettySize=auto;html=1;" parent="1" source="g6ZDhscE6CRyUxzwVH4b-52" target="g6ZDhscE6CRyUxzwVH4b-54" edge="1">
          <mxGeometry relative="1" as="geometry" />
        </mxCell>
        <mxCell id="g6ZDhscE6CRyUxzwVH4b-52" value="build" style="ellipse;whiteSpace=wrap;html=1;" parent="1" vertex="1">
          <mxGeometry x="370" y="-140" width="140" height="80" as="geometry" />
        </mxCell>
        <mxCell id="g6ZDhscE6CRyUxzwVH4b-58" value="" style="edgeStyle=orthogonalEdgeStyle;rounded=0;orthogonalLoop=1;jettySize=auto;html=1;" parent="1" source="g6ZDhscE6CRyUxzwVH4b-54" target="g6ZDhscE6CRyUxzwVH4b-57" edge="1">
          <mxGeometry relative="1" as="geometry" />
        </mxCell>
        <mxCell id="g6ZDhscE6CRyUxzwVH4b-54" value="devop" style="ellipse;whiteSpace=wrap;html=1;" parent="1" vertex="1">
          <mxGeometry x="370" y="-300" width="140" height="80" as="geometry" />
        </mxCell>
        <mxCell id="g6ZDhscE6CRyUxzwVH4b-57" value="plan" style="ellipse;whiteSpace=wrap;html=1;" parent="1" vertex="1">
          <mxGeometry x="370" y="-460" width="140" height="80" as="geometry" />
        </mxCell>
        <mxCell id="g6ZDhscE6CRyUxzwVH4b-59" value="release" style="ellipse;whiteSpace=wrap;html=1;" parent="1" vertex="1">
          <mxGeometry x="340" y="150" width="150" height="70" as="geometry" />
        </mxCell>
      </root>
    </mxGraphModel>
  </diagram>
  <diagram id="Qlgc4gyV4afuL57JsECp" name="Page-2">
    <mxGraphModel dx="2298" dy="1267" grid="1" gridSize="10" guides="1" tooltips="1" connect="1" arrows="1" fold="1" page="1" pageScale="1" pageWidth="827" pageHeight="1169" math="0" shadow="0">
      <root>
        <mxCell id="0" />
        <mxCell id="1" parent="0" />
        <mxCell id="RDkoqPjPoJ5P5RfHJjpT-6" style="edgeStyle=orthogonalEdgeStyle;rounded=0;orthogonalLoop=1;jettySize=auto;html=1;entryX=0.5;entryY=0;entryDx=0;entryDy=0;" edge="1" parent="1">
          <mxGeometry relative="1" as="geometry">
            <mxPoint x="460" y="220" as="sourcePoint" />
            <mxPoint x="460" y="220" as="targetPoint" />
          </mxGeometry>
        </mxCell>
        <mxCell id="RDkoqPjPoJ5P5RfHJjpT-7" value="student information" style="rounded=0;whiteSpace=wrap;html=1;" vertex="1" parent="1">
          <mxGeometry x="280" y="10" width="270" height="50" as="geometry" />
        </mxCell>
        <mxCell id="RDkoqPjPoJ5P5RfHJjpT-10" style="edgeStyle=orthogonalEdgeStyle;rounded=0;orthogonalLoop=1;jettySize=auto;html=1;exitX=0.5;exitY=1;exitDx=0;exitDy=0;" edge="1" parent="1">
          <mxGeometry relative="1" as="geometry">
            <mxPoint x="345" y="220" as="sourcePoint" />
            <mxPoint x="345" y="220" as="targetPoint" />
          </mxGeometry>
        </mxCell>
        <mxCell id="RDkoqPjPoJ5P5RfHJjpT-13" value="Admin" style="whiteSpace=wrap;html=1;" vertex="1" parent="1">
          <mxGeometry x="30" y="130" width="180" height="50" as="geometry" />
        </mxCell>
        <mxCell id="RDkoqPjPoJ5P5RfHJjpT-15" style="edgeStyle=orthogonalEdgeStyle;rounded=0;orthogonalLoop=1;jettySize=auto;html=1;exitX=0.5;exitY=1;exitDx=0;exitDy=0;" edge="1" parent="1">
          <mxGeometry relative="1" as="geometry">
            <mxPoint x="345" y="220" as="sourcePoint" />
            <mxPoint x="345" y="220" as="targetPoint" />
          </mxGeometry>
        </mxCell>
        <mxCell id="RDkoqPjPoJ5P5RfHJjpT-94" value="" style="edgeStyle=orthogonalEdgeStyle;rounded=0;orthogonalLoop=1;jettySize=auto;html=1;" edge="1" parent="1" source="RDkoqPjPoJ5P5RfHJjpT-24" target="RDkoqPjPoJ5P5RfHJjpT-28">
          <mxGeometry relative="1" as="geometry" />
        </mxCell>
        <mxCell id="RDkoqPjPoJ5P5RfHJjpT-24" value="login to system" style="ellipse;whiteSpace=wrap;html=1;aspect=fixed;" vertex="1" parent="1">
          <mxGeometry x="330" y="120" width="80" height="80" as="geometry" />
        </mxCell>
        <mxCell id="RDkoqPjPoJ5P5RfHJjpT-26" value="check roles of acess" style="ellipse;whiteSpace=wrap;html=1;aspect=fixed;" vertex="1" parent="1">
          <mxGeometry x="755" y="90" width="90" height="90" as="geometry" />
        </mxCell>
        <mxCell id="RDkoqPjPoJ5P5RfHJjpT-28" value="check credentials" style="ellipse;whiteSpace=wrap;html=1;aspect=fixed;" vertex="1" parent="1">
          <mxGeometry x="330" y="270" width="80" height="80" as="geometry" />
        </mxCell>
        <mxCell id="RDkoqPjPoJ5P5RfHJjpT-32" value="forgot password" style="ellipse;whiteSpace=wrap;html=1;aspect=fixed;" vertex="1" parent="1">
          <mxGeometry x="50" y="280" width="160" height="160" as="geometry" />
        </mxCell>
        <mxCell id="RDkoqPjPoJ5P5RfHJjpT-33" value="send email to user" style="ellipse;whiteSpace=wrap;html=1;aspect=fixed;" vertex="1" parent="1">
          <mxGeometry x="80" y="610" width="130" height="130" as="geometry" />
        </mxCell>
        <mxCell id="RDkoqPjPoJ5P5RfHJjpT-41" value="manage system admins" style="whiteSpace=wrap;html=1;" vertex="1" parent="1">
          <mxGeometry x="50" y="950" width="240" height="50" as="geometry" />
        </mxCell>
        <mxCell id="RDkoqPjPoJ5P5RfHJjpT-42" value="manage roles of user" style="whiteSpace=wrap;html=1;" vertex="1" parent="1">
          <mxGeometry x="370" y="960" width="240" height="50" as="geometry" />
        </mxCell>
        <mxCell id="RDkoqPjPoJ5P5RfHJjpT-43" value="manage user permissions" style="whiteSpace=wrap;html=1;" vertex="1" parent="1">
          <mxGeometry x="680" y="960" width="240" height="50" as="geometry" />
        </mxCell>
        <mxCell id="RDkoqPjPoJ5P5RfHJjpT-45" value="manage attendence details" style="whiteSpace=wrap;html=1;" vertex="1" parent="1">
          <mxGeometry x="1010" y="160" width="240" height="50" as="geometry" />
        </mxCell>
        <mxCell id="RDkoqPjPoJ5P5RfHJjpT-46" value="manage class details" style="whiteSpace=wrap;html=1;" vertex="1" parent="1">
          <mxGeometry x="1000" y="280" width="240" height="50" as="geometry" />
        </mxCell>
        <mxCell id="RDkoqPjPoJ5P5RfHJjpT-49" value="manage student details" style="whiteSpace=wrap;html=1;" vertex="1" parent="1">
          <mxGeometry x="1000" y="400" width="240" height="50" as="geometry" />
        </mxCell>
        <mxCell id="RDkoqPjPoJ5P5RfHJjpT-50" value="manage fees details" style="whiteSpace=wrap;html=1;" vertex="1" parent="1">
          <mxGeometry x="1000" y="510" width="250" height="50" as="geometry" />
        </mxCell>
        <mxCell id="RDkoqPjPoJ5P5RfHJjpT-51" value="manage teacher profiles" style="whiteSpace=wrap;html=1;" vertex="1" parent="1">
          <mxGeometry x="990" y="640" width="260" height="50" as="geometry" />
        </mxCell>
        <mxCell id="RDkoqPjPoJ5P5RfHJjpT-53" value="manage report" style="whiteSpace=wrap;html=1;" vertex="1" parent="1">
          <mxGeometry x="1000" y="770" width="250" height="50" as="geometry" />
        </mxCell>
        <mxCell id="RDkoqPjPoJ5P5RfHJjpT-55" value="manage timetable details" style="whiteSpace=wrap;html=1;" vertex="1" parent="1">
          <mxGeometry x="1005" y="70" width="250" height="50" as="geometry" />
        </mxCell>
        <mxCell id="RDkoqPjPoJ5P5RfHJjpT-73" value="" style="endArrow=classic;html=1;rounded=0;" edge="1" parent="1">
          <mxGeometry width="50" height="50" relative="1" as="geometry">
            <mxPoint x="130" y="190" as="sourcePoint" />
            <mxPoint x="130" y="270" as="targetPoint" />
          </mxGeometry>
        </mxCell>
        <mxCell id="RDkoqPjPoJ5P5RfHJjpT-74" value="" style="endArrow=classic;html=1;rounded=0;entryX=0.388;entryY=0.03;entryDx=0;entryDy=0;entryPerimeter=0;" edge="1" parent="1" target="RDkoqPjPoJ5P5RfHJjpT-33">
          <mxGeometry width="50" height="50" relative="1" as="geometry">
            <mxPoint x="130" y="430" as="sourcePoint" />
            <mxPoint x="130" y="510" as="targetPoint" />
          </mxGeometry>
        </mxCell>
        <mxCell id="RDkoqPjPoJ5P5RfHJjpT-87" value="" style="endArrow=classic;html=1;rounded=0;entryX=0.5;entryY=0;entryDx=0;entryDy=0;" edge="1" parent="1" target="RDkoqPjPoJ5P5RfHJjpT-28">
          <mxGeometry width="50" height="50" relative="1" as="geometry">
            <mxPoint x="370" y="210" as="sourcePoint" />
            <mxPoint x="360" y="300" as="targetPoint" />
          </mxGeometry>
        </mxCell>
        <mxCell id="RDkoqPjPoJ5P5RfHJjpT-100" value="" style="endArrow=classic;html=1;rounded=0;" edge="1" parent="1">
          <mxGeometry relative="1" as="geometry">
            <mxPoint x="320" y="160" as="sourcePoint" />
            <mxPoint x="320" y="160" as="targetPoint" />
            <Array as="points">
              <mxPoint x="210" y="160" />
            </Array>
          </mxGeometry>
        </mxCell>
        <mxCell id="RDkoqPjPoJ5P5RfHJjpT-102" value="" style="endArrow=classic;html=1;rounded=0;entryX=0.5;entryY=0;entryDx=0;entryDy=0;" edge="1" parent="1" source="RDkoqPjPoJ5P5RfHJjpT-30">
          <mxGeometry width="50" height="50" relative="1" as="geometry">
            <mxPoint x="800" y="190" as="sourcePoint" />
            <mxPoint x="800" y="280" as="targetPoint" />
          </mxGeometry>
        </mxCell>
        <mxCell id="RDkoqPjPoJ5P5RfHJjpT-103" value="" style="endArrow=classic;html=1;rounded=0;" edge="1" parent="1">
          <mxGeometry width="50" height="50" relative="1" as="geometry">
            <mxPoint x="800" y="190" as="sourcePoint" />
            <mxPoint x="800" y="260" as="targetPoint" />
          </mxGeometry>
        </mxCell>
        <mxCell id="RDkoqPjPoJ5P5RfHJjpT-30" value="manage modules" style="ellipse;whiteSpace=wrap;html=1;" vertex="1" parent="1">
          <mxGeometry x="765" y="270" width="80" height="80" as="geometry" />
        </mxCell>
        <mxCell id="RDkoqPjPoJ5P5RfHJjpT-104" value="" style="endArrow=classic;html=1;rounded=0;entryX=0.5;entryY=0;entryDx=0;entryDy=0;exitX=0.5;exitY=1;exitDx=0;exitDy=0;" edge="1" parent="1" source="RDkoqPjPoJ5P5RfHJjpT-30" target="RDkoqPjPoJ5P5RfHJjpT-43">
          <mxGeometry width="50" height="50" relative="1" as="geometry">
            <mxPoint x="800" y="450" as="sourcePoint" />
            <mxPoint x="805" y="530" as="targetPoint" />
          </mxGeometry>
        </mxCell>
        <mxCell id="RDkoqPjPoJ5P5RfHJjpT-106" value="" style="endArrow=classic;html=1;rounded=0;" edge="1" parent="1">
          <mxGeometry width="50" height="50" relative="1" as="geometry">
            <mxPoint x="420" y="320" as="sourcePoint" />
            <mxPoint x="750" y="150" as="targetPoint" />
          </mxGeometry>
        </mxCell>
        <mxCell id="RDkoqPjPoJ5P5RfHJjpT-107" value="" style="endArrow=classic;html=1;rounded=0;exitX=0;exitY=1;exitDx=0;exitDy=0;" edge="1" parent="1" source="RDkoqPjPoJ5P5RfHJjpT-30">
          <mxGeometry width="50" height="50" relative="1" as="geometry">
            <mxPoint x="570" y="560" as="sourcePoint" />
            <mxPoint x="190" y="940" as="targetPoint" />
          </mxGeometry>
        </mxCell>
        <mxCell id="RDkoqPjPoJ5P5RfHJjpT-108" value="" style="endArrow=classic;html=1;rounded=0;exitX=0;exitY=1;exitDx=0;exitDy=0;" edge="1" parent="1" source="RDkoqPjPoJ5P5RfHJjpT-30">
          <mxGeometry width="50" height="50" relative="1" as="geometry">
            <mxPoint x="540" y="740" as="sourcePoint" />
            <mxPoint x="470" y="950" as="targetPoint" />
          </mxGeometry>
        </mxCell>
        <mxCell id="RDkoqPjPoJ5P5RfHJjpT-111" value="" style="endArrow=classic;html=1;rounded=0;" edge="1" parent="1">
          <mxGeometry width="50" height="50" relative="1" as="geometry">
            <mxPoint x="850" y="300" as="sourcePoint" />
            <mxPoint x="1000" y="820" as="targetPoint" />
            <Array as="points" />
          </mxGeometry>
        </mxCell>
        <mxCell id="RDkoqPjPoJ5P5RfHJjpT-112" value="" style="endArrow=classic;html=1;rounded=0;entryX=0;entryY=0.75;entryDx=0;entryDy=0;" edge="1" parent="1" target="RDkoqPjPoJ5P5RfHJjpT-51">
          <mxGeometry width="50" height="50" relative="1" as="geometry">
            <mxPoint x="860" y="330" as="sourcePoint" />
            <mxPoint x="1080" y="870" as="targetPoint" />
            <Array as="points" />
          </mxGeometry>
        </mxCell>
        <mxCell id="RDkoqPjPoJ5P5RfHJjpT-113" value="" style="endArrow=classic;html=1;rounded=0;" edge="1" parent="1">
          <mxGeometry width="50" height="50" relative="1" as="geometry">
            <mxPoint x="860" y="310" as="sourcePoint" />
            <mxPoint x="990" y="550" as="targetPoint" />
            <Array as="points" />
          </mxGeometry>
        </mxCell>
        <mxCell id="RDkoqPjPoJ5P5RfHJjpT-114" value="" style="endArrow=classic;html=1;rounded=0;" edge="1" parent="1">
          <mxGeometry width="50" height="50" relative="1" as="geometry">
            <mxPoint x="860" y="300" as="sourcePoint" />
            <mxPoint x="1000" y="430" as="targetPoint" />
            <Array as="points" />
          </mxGeometry>
        </mxCell>
        <mxCell id="RDkoqPjPoJ5P5RfHJjpT-115" value="" style="endArrow=classic;html=1;rounded=0;" edge="1" parent="1">
          <mxGeometry width="50" height="50" relative="1" as="geometry">
            <mxPoint x="850" y="290" as="sourcePoint" />
            <mxPoint x="990" y="80" as="targetPoint" />
            <Array as="points" />
          </mxGeometry>
        </mxCell>
        <mxCell id="RDkoqPjPoJ5P5RfHJjpT-116" value="" style="endArrow=classic;html=1;rounded=0;entryX=0;entryY=1;entryDx=0;entryDy=0;" edge="1" parent="1" target="RDkoqPjPoJ5P5RfHJjpT-45">
          <mxGeometry width="50" height="50" relative="1" as="geometry">
            <mxPoint x="850" y="310" as="sourcePoint" />
            <mxPoint x="1090" y="250" as="targetPoint" />
            <Array as="points" />
          </mxGeometry>
        </mxCell>
        <mxCell id="RDkoqPjPoJ5P5RfHJjpT-117" value="" style="endArrow=classic;html=1;rounded=0;exitX=1;exitY=0.5;exitDx=0;exitDy=0;" edge="1" parent="1" source="RDkoqPjPoJ5P5RfHJjpT-30">
          <mxGeometry width="50" height="50" relative="1" as="geometry">
            <mxPoint x="930" y="420" as="sourcePoint" />
            <mxPoint x="990" y="320" as="targetPoint" />
            <Array as="points" />
          </mxGeometry>
        </mxCell>
      </root>
    </mxGraphModel>
  </diagram>
</mxfile>
